<svg xmlns="http://www.w3.org/2000/svg" viewBox="0 0 738 729.047">
    <path fill="#e6e6e6"
          d="M550.445 172.947h-4V63.402A63.402 63.402 0 0 0 483.046 0H250.956a63.402 63.402 0 0 0-63.402 63.402v600.974a63.402 63.402 0 0 0 63.402 63.402h232.087a63.402 63.402 0 0 0 63.402-63.402V250.923h3.999Z"/>
    <path fill="#fff"
          d="M532.951 63.844v600.09a47.35 47.35 0 0 1-47.35 47.35h-233.2a47.35 47.35 0 0 1-47.35-47.35V63.844a47.35 47.35 0 0 1 47.35-47.35h28.29a22.507 22.507 0 0 0 20.83 30.99h132.96a22.507 22.507 0 0 0 20.83-30.99h30.29a47.35 47.35 0 0 1 47.35 47.35Z"/>
    <path fill="#7ed4fc"
          d="M304.603 181.04h-35.812a11.142 11.142 0 0 1-11.129-11.13v-35.812a11.142 11.142 0 0 1 11.13-11.129h35.811a11.142 11.142 0 0 1 11.13 11.13v35.811a11.142 11.142 0 0 1-11.13 11.13ZM386.907 181.04h-35.812a11.142 11.142 0 0 1-11.13-11.13v-35.812a11.142 11.142 0 0 1 11.13-11.129h35.812a11.142 11.142 0 0 1 11.13 11.13v35.811a11.142 11.142 0 0 1-11.13 11.13Z"/>
    <path fill="#e6e6e6"
          d="M469.21 181.04H433.4a11.142 11.142 0 0 1-11.13-11.13v-35.812a11.142 11.142 0 0 1 11.13-11.129h35.812a11.142 11.142 0 0 1 11.129 11.13v35.811a11.142 11.142 0 0 1-11.13 11.13ZM304.603 272.548h-35.812a11.142 11.142 0 0 1-11.129-11.129v-35.812a11.142 11.142 0 0 1 11.13-11.13h35.811a11.142 11.142 0 0 1 11.13 11.13v35.812a11.142 11.142 0 0 1-11.13 11.13ZM386.907 272.548h-35.812a11.142 11.142 0 0 1-11.13-11.129v-35.812a11.142 11.142 0 0 1 11.13-11.13h35.812a11.142 11.142 0 0 1 11.13 11.13v35.812a11.142 11.142 0 0 1-11.13 11.13ZM469.21 272.548H433.4a11.142 11.142 0 0 1-11.13-11.129v-35.812a11.142 11.142 0 0 1 11.13-11.13h35.812a11.142 11.142 0 0 1 11.129 11.13v35.812a11.142 11.142 0 0 1-11.13 11.13ZM304.603 364.04h-35.812a11.142 11.142 0 0 1-11.129-11.13v-35.812a11.142 11.142 0 0 1 11.13-11.129h35.811a11.142 11.142 0 0 1 11.13 11.13v35.811a11.142 11.142 0 0 1-11.13 11.13ZM386.907 364.04h-35.812a11.142 11.142 0 0 1-11.13-11.13v-35.812a11.142 11.142 0 0 1 11.13-11.129h35.812a11.142 11.142 0 0 1 11.13 11.13v35.811a11.142 11.142 0 0 1-11.13 11.13ZM469.21 364.04H433.4a11.142 11.142 0 0 1-11.13-11.13v-35.812a11.142 11.142 0 0 1 11.13-11.129h35.812a11.142 11.142 0 0 1 11.129 11.13v35.811a11.142 11.142 0 0 1-11.13 11.13ZM304.603 455.548h-35.812a11.142 11.142 0 0 1-11.129-11.129v-35.812a11.142 11.142 0 0 1 11.13-11.13h35.811a11.142 11.142 0 0 1 11.13 11.13v35.812a11.142 11.142 0 0 1-11.13 11.13ZM386.907 455.548h-35.812a11.142 11.142 0 0 1-11.13-11.129v-35.812a11.142 11.142 0 0 1 11.13-11.13h35.812a11.142 11.142 0 0 1 11.13 11.13v35.812a11.142 11.142 0 0 1-11.13 11.13ZM469.21 455.548H433.4a11.142 11.142 0 0 1-11.13-11.129v-35.812a11.142 11.142 0 0 1 11.13-11.13h35.812a11.142 11.142 0 0 1 11.129 11.13v35.812a11.142 11.142 0 0 1-11.13 11.13Z"/>
    <path fill="#7ed4fc"
          d="M409.941 444.936H374.13a11.643 11.643 0 0 1-11.629-11.63v-35.811a11.642 11.642 0 0 1 11.63-11.63h35.811a11.642 11.642 0 0 1 11.63 11.63v35.812a11.642 11.642 0 0 1-11.63 11.63Z"/>
    <path fill="#ffb8b8"
          d="M240.496 537.352a10.342 10.342 0 0 0 3.698-15.421l7.734-75.611h-16.713l-6.146 73.83a10.398 10.398 0 0 0 11.427 17.202Z"/>
    <circle cx="255.841" cy="380.947" r="23.645" fill="#ffb8b8"/>
    <path fill="#ccc"
          d="M260.293 490.353a4.324 4.324 0 0 1-4.168-3.176c-1.894-6.882-6.823-18.52-14.649-34.59a28.652 28.652 0 0 1 16.27-39.557 28.639 28.639 0 0 1 36.802 18.244c6.066 19.017 5.773 39.388 5.365 47.263a4.343 4.343 0 0 1-3.402 4.01l-35.29 7.706a4.31 4.31 0 0 1-.928.1Z"/>
    <path fill="#ffb8b8" d="m294.466 714.884 11.803-.001 5.615-45.524-17.42.001.002 45.524z"/>
    <path fill="#2f2e41" d="m329.031 725.842-37.093.001-.001-14.331 22.762-.001a14.332 14.332 0 0 1 14.332 14.33Z"/>
    <path fill="#ffb8b8" d="m176.447 699.587 10.343 5.686 26.854-37.186-15.265-8.392-21.932 39.892z"/>
    <path fill="#2f2e41"
          d="m201.456 725.843-32.505-17.87 6.904-12.56 19.947 10.967a14.332 14.332 0 0 1 5.654 19.463ZM293.915 689.615a4.332 4.332 0 0 1-4.292-3.774l-14.76-113.742a2.407 2.407 0 0 0-4.495-.853l-61.515 111.607a4.356 4.356 0 0 1-5.336 1.958l-13.409-5.109a4.332 4.332 0 0 1-2.47-5.68l42.613-104.683a3.337 3.337 0 0 0 .218-.829c5.772-44.673 20.457-67.39 24.82-73.289a3.355 3.355 0 0 0 .477-3.054l-.6-1.8a4.33 4.33 0 0 1 .834-4.213c15.722-17.908 43.126-8.136 43.4-8.036l.138.05.086.118c30.727 42.14 19.366 179.01 16.777 206.02a4.32 4.32 0 0 1-3.98 3.898l-18.17 1.4a4.511 4.511 0 0 1-.336.011Z"/>
    <path fill="#ffb8b8"
          d="M347.764 408.413a10.133 10.133 0 0 0-.23 1.579l-41.356 23.858-10.052-5.787-10.716 14.029 16.8 11.973a7.702 7.702 0 0 0 9.24-.225l42.645-33.642a10.106 10.106 0 1 0-6.33-11.785Z"/>
    <path fill="#ccc"
          d="m304.796 434.98-13.366 17.322a4.332 4.332 0 0 1-6.55.36l-15.131-15.713a12.031 12.031 0 0 1 14.755-19.008l18.977 10.612a4.332 4.332 0 0 1 1.315 6.427ZM252.991 465.076l-21.531-3.888a4.332 4.332 0 0 1-3.335-5.65l6.98-20.666a12.031 12.031 0 0 1 23.667 4.345l-.68 21.733a4.332 4.332 0 0 1-5.1 4.126Z"/>
    <path fill="#2f2e41"
          d="M259.584 375.508c6.077 4.16 14.057 8.435 20.264 4.006a11.295 11.295 0 0 0 3.707-13.02c-2.973-8.5-11.138-12.242-18.947-15.11-10.151-3.729-21.204-6.695-31.684-4.025s-19.74 12.817-17.849 23.464c1.521 8.563 9.598 15.687 8.452 24.308-1.154 8.676-10.911 13.243-19.525 14.794s-18.254 2.049-24.444 8.236c-7.897 7.893-5.925 22 1.506 30.334s18.644 12.111 29.51 14.68c14.397 3.402 29.968 5.19 43.642-.457s24.313-20.847 20.352-35.1c-1.673-6.02-5.614-11.109-9.423-16.062s-7.666-10.134-9.12-16.211c-1.21-5.065-.314-10.945 3.045-14.744a4.272 4.272 0 0 0 .572-4.993Z"/>
    <path fill="#ffb8b8" d="M500 716.459h-12.26l-5.832-47.288h18.094L500 716.459z"/>
    <path fill="#2f2e41" d="M478.983 712.956h23.644v14.886h-38.53a14.887 14.887 0 0 1 14.886-14.886Z"/>
    <path fill="#ffb8b8" d="M546 716.459h-12.26l-5.832-47.288h18.094L546 716.459z"/>
    <path fill="#2f2e41" d="M524.983 712.956h23.644v14.886h-38.53a14.887 14.887 0 0 1 14.886-14.886Z"/>
    <path fill="#ffb8b8"
          d="M544.503 575.62a10.743 10.743 0 0 1-2.062-16.342l-8.073-114.558 23.253 2.255.639 112.186a10.8 10.8 0 0 1-13.757 16.46Z"/>
    <path fill="#2f2e41"
          d="m499.421 692.636-13.496-.643a4.499 4.499 0 0 1-4.286-4.463l-.942-136.557a4.501 4.501 0 0 1 5.146-4.485l53.994 7.838a4.474 4.474 0 0 1 3.854 4.42l6.944 126.534a4.5 4.5 0 0 1-4.5 4.534h-14.55a4.479 4.479 0 0 1-4.446-3.8l-8.977-57.068a3.5 3.5 0 0 0-6.932.128l-7.127 59.602a4.517 4.517 0 0 1-4.468 3.966q-.107 0-.214-.006Z"/>
    <path fill="#7ed4fc"
          d="M508.922 558.752c-11.9-6.612-21.197-8.35-25.68-8.796a4.418 4.418 0 0 1-3.053-1.673 4.478 4.478 0 0 1-.932-3.402l12.938-96.05a33.22 33.22 0 0 1 19.363-25.957 32.306 32.306 0 0 1 31.396 2.46q.665.443 1.305.904a33.178 33.178 0 0 1 12.637 34.573c-7.934 32.455-10.66 85.662-11.125 96a4.465 4.465 0 0 1-2.918 4.004 45.085 45.085 0 0 1-15.226 2.71 38.125 38.125 0 0 1-18.705-4.773Z"/>
    <path fill="#7ed4fc"
          d="M539.632 483.213a4.482 4.482 0 0 1-1.859-3.401l-1.704-30.876a12.399 12.399 0 0 1 24.347-3.927l7.484 27.605a4.505 4.505 0 0 1-3.165 5.52l-21.291 5.773a4.483 4.483 0 0 1-3.812-.694Z"/>
    <circle cx="519.744" cy="385.271" r="24.561" fill="#ffb8b8"/>
    <path fill="#ffb8b8"
          d="M430.74 433.525a10.526 10.526 0 0 1 .24 1.64l42.957 24.782 10.441-6.01 11.131 14.572-22.337 15.92-49.008-38.662a10.496 10.496 0 1 1 6.576-12.242Z"/>
    <path fill="#7ed4fc"
          d="M475.47 457.84a4.482 4.482 0 0 1 1.294-3.653l21.863-21.869a12.399 12.399 0 0 1 19.169 15.517l-15.57 23.992a4.505 4.505 0 0 1-6.225 1.325l-18.504-12.009a4.483 4.483 0 0 1-2.026-3.303Z"/>
    <path fill="#2f2e41"
          d="M537.124 404.702c-4.582 4.881-13.091 2.26-13.688-4.407a8.056 8.056 0 0 1 .01-1.556c.308-2.953 2.015-5.635 1.606-8.753a4.59 4.59 0 0 0-.84-2.15c-3.651-4.888-12.223 2.188-15.668-2.238-2.113-2.714.37-6.988-1.251-10.02-2.14-4.005-8.479-2.03-12.454-4.222-4.423-2.44-4.158-9.225-1.247-13.353 3.55-5.033 9.776-7.72 15.924-8.106s12.252 1.274 17.992 3.511c6.52 2.541 12.987 6.054 17 11.788 4.88 6.973 5.35 16.348 2.91 24.501-1.485 4.96-6.552 11.02-10.294 15.005Z"/>
</svg>
